<mxfile host="app.diagrams.net" modified="2020-09-10T14:44:40.438Z" agent="5.0 (Windows NT 10.0; Win64; x64) AppleWebKit/537.36 (KHTML, like Gecko) Chrome/85.0.4183.83 Safari/537.36" etag="MwFmeqHeFcJV--vGw2Ar" version="13.6.9" type="github">
  <diagram name="Page-1" id="8378b5f6-a2b2-b727-a746-972ab9d02e00">
    <mxGraphModel dx="2966" dy="1426" grid="1" gridSize="10" guides="1" tooltips="1" connect="0" arrows="1" fold="1" page="1" pageScale="1.5" pageWidth="1169" pageHeight="827" background="#ffffff" math="0" shadow="0">
      <root>
        <mxCell id="0" />
        <mxCell id="1" parent="0" />
        <mxCell id="rddespz064YGn290ZFb--286" value="" style="strokeColor=#DEEDFF" vertex="1" parent="1">
          <mxGeometry x="686.5" y="379" width="30" height="440.5" as="geometry" />
        </mxCell>
        <mxCell id="rddespz064YGn290ZFb--289" value="February" style="fillColor=#23445D;strokeColor=#FFFFFF;strokeWidth=2;fontColor=#FFFFFF;fontStyle=1" vertex="1" parent="1">
          <mxGeometry x="686.5" y="340" width="60" height="20" as="geometry" />
        </mxCell>
        <mxCell id="rddespz064YGn290ZFb--292" value="w 17" style="fillColor=#23445D;strokeColor=#FFFFFF;strokeWidth=2;fontColor=#FFFFFF;fontStyle=1" vertex="1" parent="1">
          <mxGeometry x="686.5000000000018" y="360" width="30" height="20" as="geometry" />
        </mxCell>
        <mxCell id="rddespz064YGn290ZFb--301" value="" style="strokeColor=#DEEDFF" vertex="1" parent="1">
          <mxGeometry x="716.500000000002" y="379.50000000000387" width="30" height="440.5" as="geometry" />
        </mxCell>
        <mxCell id="rddespz064YGn290ZFb--302" value="w 24" style="fillColor=#23445D;strokeColor=#FFFFFF;strokeWidth=2;fontColor=#FFFFFF;fontStyle=1" vertex="1" parent="1">
          <mxGeometry x="716.5000000000018" y="360" width="30" height="20" as="geometry" />
        </mxCell>
        <mxCell id="rddespz064YGn290ZFb--303" value="" style="strokeColor=#DEEDFF" vertex="1" parent="1">
          <mxGeometry x="746.500000000002" y="379.0000000000002" width="30" height="440.5" as="geometry" />
        </mxCell>
        <mxCell id="rddespz064YGn290ZFb--304" value="" style="strokeColor=#DEEDFF" vertex="1" parent="1">
          <mxGeometry x="776.500000000002" y="380.00000000000387" width="30" height="440.5" as="geometry" />
        </mxCell>
        <mxCell id="rddespz064YGn290ZFb--305" value="" style="strokeColor=#DEEDFF" vertex="1" parent="1">
          <mxGeometry x="806.500000000002" y="380.00000000000387" width="30" height="440.5" as="geometry" />
        </mxCell>
        <mxCell id="rddespz064YGn290ZFb--307" value="March" style="fillColor=#23445D;strokeColor=#FFFFFF;strokeWidth=2;fontColor=#FFFFFF;fontStyle=1" vertex="1" parent="1">
          <mxGeometry x="746.5" y="340" width="130.5" height="20" as="geometry" />
        </mxCell>
        <mxCell id="rddespz064YGn290ZFb--308" value="w 02" style="fillColor=#23445D;strokeColor=#FFFFFF;strokeWidth=2;fontColor=#FFFFFF;fontStyle=1" vertex="1" parent="1">
          <mxGeometry x="746.5000000000018" y="360.0000000000001" width="30" height="20" as="geometry" />
        </mxCell>
        <mxCell id="rddespz064YGn290ZFb--309" value="w 9" style="fillColor=#23445D;strokeColor=#FFFFFF;strokeWidth=2;fontColor=#FFFFFF;fontStyle=1" vertex="1" parent="1">
          <mxGeometry x="776.5000000000018" y="360.0000000000001" width="30" height="20" as="geometry" />
        </mxCell>
        <mxCell id="rddespz064YGn290ZFb--310" value="w 16" style="fillColor=#23445D;strokeColor=#FFFFFF;strokeWidth=2;fontColor=#FFFFFF;fontStyle=1" vertex="1" parent="1">
          <mxGeometry x="806.5000000000018" y="360.0000000000001" width="30" height="20" as="geometry" />
        </mxCell>
        <mxCell id="rddespz064YGn290ZFb--312" value="" style="strokeColor=#DEEDFF" vertex="1" parent="1">
          <mxGeometry x="836.500000000002" y="380.00000000000387" width="30" height="440.5" as="geometry" />
        </mxCell>
        <mxCell id="rddespz064YGn290ZFb--313" value="w 23" style="fillColor=#23445D;strokeColor=#FFFFFF;strokeWidth=2;fontColor=#FFFFFF;fontStyle=1" vertex="1" parent="1">
          <mxGeometry x="836.5000000000018" y="360.0000000000001" width="30" height="20" as="geometry" />
        </mxCell>
        <mxCell id="rddespz064YGn290ZFb--314" value="" style="strokeColor=#DEEDFF" vertex="1" parent="1">
          <mxGeometry x="896.500000000002" y="380.0000000000002" width="30" height="440.5" as="geometry" />
        </mxCell>
        <mxCell id="rddespz064YGn290ZFb--315" value="" style="strokeColor=#DEEDFF" vertex="1" parent="1">
          <mxGeometry x="926.500000000002" y="380.00000000000387" width="30" height="440.5" as="geometry" />
        </mxCell>
        <mxCell id="rddespz064YGn290ZFb--316" value="" style="strokeColor=#DEEDFF" vertex="1" parent="1">
          <mxGeometry x="956.500000000002" y="380.00000000000387" width="30" height="440.5" as="geometry" />
        </mxCell>
        <mxCell id="rddespz064YGn290ZFb--318" value="April" style="fillColor=#23445D;strokeColor=#FFFFFF;strokeWidth=2;fontColor=#FFFFFF;fontStyle=1" vertex="1" parent="1">
          <mxGeometry x="876.5" y="340" width="130.5" height="20" as="geometry" />
        </mxCell>
        <mxCell id="rddespz064YGn290ZFb--319" value="w 06" style="fillColor=#23445D;strokeColor=#FFFFFF;strokeWidth=2;fontColor=#FFFFFF;fontStyle=1" vertex="1" parent="1">
          <mxGeometry x="896.5000000000018" y="360" width="30" height="20" as="geometry" />
        </mxCell>
        <mxCell id="rddespz064YGn290ZFb--320" value="w 16" style="fillColor=#23445D;strokeColor=#FFFFFF;strokeWidth=2;fontColor=#FFFFFF;fontStyle=1" vertex="1" parent="1">
          <mxGeometry x="926.5000000000018" y="360" width="30" height="20" as="geometry" />
        </mxCell>
        <mxCell id="rddespz064YGn290ZFb--321" value="w 20" style="fillColor=#23445D;strokeColor=#FFFFFF;strokeWidth=2;fontColor=#FFFFFF;fontStyle=1" vertex="1" parent="1">
          <mxGeometry x="956.5000000000018" y="360" width="30" height="20" as="geometry" />
        </mxCell>
        <mxCell id="rddespz064YGn290ZFb--323" value="" style="strokeColor=#DEEDFF" vertex="1" parent="1">
          <mxGeometry x="986.500000000002" y="380.00000000000387" width="30" height="440.5" as="geometry" />
        </mxCell>
        <mxCell id="rddespz064YGn290ZFb--324" value="w 27" style="fillColor=#23445D;strokeColor=#FFFFFF;strokeWidth=2;fontColor=#FFFFFF;fontStyle=1" vertex="1" parent="1">
          <mxGeometry x="986.5000000000018" y="360" width="30" height="20" as="geometry" />
        </mxCell>
        <mxCell id="rddespz064YGn290ZFb--325" value="" style="strokeColor=#DEEDFF" vertex="1" parent="1">
          <mxGeometry x="1016.500000000002" y="380.0000000000002" width="30" height="440.5" as="geometry" />
        </mxCell>
        <mxCell id="rddespz064YGn290ZFb--326" value="" style="strokeColor=#DEEDFF" vertex="1" parent="1">
          <mxGeometry x="1046.500000000002" y="380.00000000000387" width="30" height="440.5" as="geometry" />
        </mxCell>
        <mxCell id="rddespz064YGn290ZFb--327" value="" style="strokeColor=#DEEDFF" vertex="1" parent="1">
          <mxGeometry x="1076.500000000002" y="380.00000000000387" width="30" height="440.5" as="geometry" />
        </mxCell>
        <mxCell id="rddespz064YGn290ZFb--329" value="May" style="fillColor=#23445D;strokeColor=#FFFFFF;strokeWidth=2;fontColor=#FFFFFF;fontStyle=1" vertex="1" parent="1">
          <mxGeometry x="1006.5" y="340" width="130" height="20" as="geometry" />
        </mxCell>
        <mxCell id="rddespz064YGn290ZFb--330" value="w 04" style="fillColor=#23445D;strokeColor=#FFFFFF;strokeWidth=2;fontColor=#FFFFFF;fontStyle=1" vertex="1" parent="1">
          <mxGeometry x="1016.5000000000018" y="360" width="30" height="20" as="geometry" />
        </mxCell>
        <mxCell id="rddespz064YGn290ZFb--331" value="w 11" style="fillColor=#23445D;strokeColor=#FFFFFF;strokeWidth=2;fontColor=#FFFFFF;fontStyle=1" vertex="1" parent="1">
          <mxGeometry x="1046.5000000000018" y="360" width="30" height="20" as="geometry" />
        </mxCell>
        <mxCell id="rddespz064YGn290ZFb--332" value="w 18" style="fillColor=#23445D;strokeColor=#FFFFFF;strokeWidth=2;fontColor=#FFFFFF;fontStyle=1" vertex="1" parent="1">
          <mxGeometry x="1076.5000000000018" y="360" width="30" height="20" as="geometry" />
        </mxCell>
        <mxCell id="rddespz064YGn290ZFb--334" value="" style="strokeColor=#DEEDFF" vertex="1" parent="1">
          <mxGeometry x="1106.500000000002" y="380.00000000000387" width="30" height="440.5" as="geometry" />
        </mxCell>
        <mxCell id="rddespz064YGn290ZFb--335" value="w 25" style="fillColor=#23445D;strokeColor=#FFFFFF;strokeWidth=2;fontColor=#FFFFFF;fontStyle=1" vertex="1" parent="1">
          <mxGeometry x="1106.5000000000018" y="360" width="30" height="20" as="geometry" />
        </mxCell>
        <mxCell id="rddespz064YGn290ZFb--336" value="" style="strokeColor=#DEEDFF" vertex="1" parent="1">
          <mxGeometry x="1136.500000000002" y="380.0000000000002" width="30" height="440.5" as="geometry" />
        </mxCell>
        <mxCell id="rddespz064YGn290ZFb--337" value="" style="strokeColor=#DEEDFF" vertex="1" parent="1">
          <mxGeometry x="1166.500000000002" y="380.00000000000387" width="30" height="440.5" as="geometry" />
        </mxCell>
        <mxCell id="rddespz064YGn290ZFb--338" value="" style="strokeColor=#DEEDFF" vertex="1" parent="1">
          <mxGeometry x="1196.500000000002" y="380.00000000000387" width="30" height="440.5" as="geometry" />
        </mxCell>
        <mxCell id="rddespz064YGn290ZFb--340" value="June" style="fillColor=#23445D;strokeColor=#FFFFFF;strokeWidth=2;fontColor=#FFFFFF;fontStyle=1" vertex="1" parent="1">
          <mxGeometry x="1136.5" y="340" width="130" height="20" as="geometry" />
        </mxCell>
        <mxCell id="rddespz064YGn290ZFb--341" value="w 01" style="fillColor=#23445D;strokeColor=#FFFFFF;strokeWidth=2;fontColor=#FFFFFF;fontStyle=1" vertex="1" parent="1">
          <mxGeometry x="1136.5000000000018" y="360" width="30" height="20" as="geometry" />
        </mxCell>
        <mxCell id="rddespz064YGn290ZFb--342" value="w 8" style="fillColor=#23445D;strokeColor=#FFFFFF;strokeWidth=2;fontColor=#FFFFFF;fontStyle=1" vertex="1" parent="1">
          <mxGeometry x="1166.5000000000018" y="360" width="30" height="20" as="geometry" />
        </mxCell>
        <mxCell id="rddespz064YGn290ZFb--343" value="w 15" style="fillColor=#23445D;strokeColor=#FFFFFF;strokeWidth=2;fontColor=#FFFFFF;fontStyle=1" vertex="1" parent="1">
          <mxGeometry x="1196.5000000000018" y="360" width="30" height="20" as="geometry" />
        </mxCell>
        <mxCell id="rddespz064YGn290ZFb--345" value="" style="strokeColor=#DEEDFF" vertex="1" parent="1">
          <mxGeometry x="1226.500000000002" y="380.00000000000387" width="30" height="440.5" as="geometry" />
        </mxCell>
        <mxCell id="rddespz064YGn290ZFb--346" value="w 22" style="fillColor=#23445D;strokeColor=#FFFFFF;strokeWidth=2;fontColor=#FFFFFF;fontStyle=1" vertex="1" parent="1">
          <mxGeometry x="1226.5000000000018" y="360" width="30" height="20" as="geometry" />
        </mxCell>
        <mxCell id="rddespz064YGn290ZFb--347" value="" style="strokeColor=#DEEDFF" vertex="1" parent="1">
          <mxGeometry x="1286.500000000002" y="380.0000000000002" width="30" height="440.5" as="geometry" />
        </mxCell>
        <mxCell id="rddespz064YGn290ZFb--348" value="" style="strokeColor=#DEEDFF" vertex="1" parent="1">
          <mxGeometry x="1316.500000000002" y="380.0000000000387" width="30" height="440.5" as="geometry" />
        </mxCell>
        <mxCell id="rddespz064YGn290ZFb--349" value="" style="strokeColor=#DEEDFF" vertex="1" parent="1">
          <mxGeometry x="1346.500000000002" y="380.00000000000387" width="30" height="440.5" as="geometry" />
        </mxCell>
        <mxCell id="rddespz064YGn290ZFb--351" value="July" style="fillColor=#23445D;strokeColor=#FFFFFF;strokeWidth=2;fontColor=#FFFFFF;fontStyle=1" vertex="1" parent="1">
          <mxGeometry x="1266.5" y="340" width="123.5" height="20" as="geometry" />
        </mxCell>
        <mxCell id="rddespz064YGn290ZFb--352" value="w 06" style="fillColor=#23445D;strokeColor=#FFFFFF;strokeWidth=2;fontColor=#FFFFFF;fontStyle=1" vertex="1" parent="1">
          <mxGeometry x="1286.5000000000018" y="360" width="30" height="20" as="geometry" />
        </mxCell>
        <mxCell id="rddespz064YGn290ZFb--353" value="w 13" style="fillColor=#23445D;strokeColor=#FFFFFF;strokeWidth=2;fontColor=#FFFFFF;fontStyle=1" vertex="1" parent="1">
          <mxGeometry x="1316.5000000000018" y="360" width="30" height="20" as="geometry" />
        </mxCell>
        <mxCell id="rddespz064YGn290ZFb--354" value="w 20" style="fillColor=#23445D;strokeColor=#FFFFFF;strokeWidth=2;fontColor=#FFFFFF;fontStyle=1" vertex="1" parent="1">
          <mxGeometry x="1346.5000000000018" y="360" width="30" height="20" as="geometry" />
        </mxCell>
        <mxCell id="rddespz064YGn290ZFb--356" value="" style="strokeColor=#DEEDFF" vertex="1" parent="1">
          <mxGeometry x="1376.500000000002" y="380.00000000000387" width="30" height="440.5" as="geometry" />
        </mxCell>
        <mxCell id="rddespz064YGn290ZFb--357" value="w 27" style="fillColor=#23445D;strokeColor=#FFFFFF;strokeWidth=2;fontColor=#FFFFFF;fontStyle=1" vertex="1" parent="1">
          <mxGeometry x="1376.5000000000018" y="360" width="30" height="20" as="geometry" />
        </mxCell>
        <mxCell id="rddespz064YGn290ZFb--360" value="" style="strokeColor=#DEEDFF" vertex="1" parent="1">
          <mxGeometry x="1406.500000000002" y="380.0000000000002" width="30" height="440.5" as="geometry" />
        </mxCell>
        <mxCell id="rddespz064YGn290ZFb--361" value="" style="strokeColor=#DEEDFF" vertex="1" parent="1">
          <mxGeometry x="1436.500000000002" y="380.00000000000387" width="30" height="440.5" as="geometry" />
        </mxCell>
        <mxCell id="rddespz064YGn290ZFb--362" value="" style="strokeColor=#DEEDFF" vertex="1" parent="1">
          <mxGeometry x="1466.500000000002" y="380.00000000000387" width="30" height="440.5" as="geometry" />
        </mxCell>
        <mxCell id="rddespz064YGn290ZFb--364" value="August" style="fillColor=#23445D;strokeColor=#FFFFFF;strokeWidth=2;fontColor=#FFFFFF;fontStyle=1" vertex="1" parent="1">
          <mxGeometry x="1390" y="340" width="136" height="20" as="geometry" />
        </mxCell>
        <mxCell id="rddespz064YGn290ZFb--365" value="w 03" style="fillColor=#23445D;strokeColor=#FFFFFF;strokeWidth=2;fontColor=#FFFFFF;fontStyle=1" vertex="1" parent="1">
          <mxGeometry x="1406.5000000000018" y="360.0000000000001" width="30" height="20" as="geometry" />
        </mxCell>
        <mxCell id="rddespz064YGn290ZFb--366" value="w 10" style="fillColor=#23445D;strokeColor=#FFFFFF;strokeWidth=2;fontColor=#FFFFFF;fontStyle=1" vertex="1" parent="1">
          <mxGeometry x="1436.5000000000018" y="360.0000000000001" width="30" height="20" as="geometry" />
        </mxCell>
        <mxCell id="rddespz064YGn290ZFb--367" value="w 17" style="fillColor=#23445D;strokeColor=#FFFFFF;strokeWidth=2;fontColor=#FFFFFF;fontStyle=1" vertex="1" parent="1">
          <mxGeometry x="1466.5000000000018" y="360.0000000000001" width="30" height="20" as="geometry" />
        </mxCell>
        <mxCell id="rddespz064YGn290ZFb--369" value="" style="strokeColor=#DEEDFF" vertex="1" parent="1">
          <mxGeometry x="1496.500000000002" y="380.00000000000387" width="30" height="440.5" as="geometry" />
        </mxCell>
        <mxCell id="rddespz064YGn290ZFb--370" value="w 24" style="fillColor=#23445D;strokeColor=#FFFFFF;strokeWidth=2;fontColor=#FFFFFF;fontStyle=1" vertex="1" parent="1">
          <mxGeometry x="1496.5000000000018" y="360.0000000000001" width="30" height="20" as="geometry" />
        </mxCell>
        <mxCell id="rddespz064YGn290ZFb--371" value="" style="strokeColor=#DEEDFF" vertex="1" parent="1">
          <mxGeometry x="1256.500000000002" y="380.00000000000387" width="30" height="440.5" as="geometry" />
        </mxCell>
        <mxCell id="rddespz064YGn290ZFb--372" value="w 29" style="fillColor=#23445D;strokeColor=#FFFFFF;strokeWidth=2;fontColor=#FFFFFF;fontStyle=1" vertex="1" parent="1">
          <mxGeometry x="1256.5000000000018" y="360" width="30" height="20" as="geometry" />
        </mxCell>
        <mxCell id="rddespz064YGn290ZFb--383" value="" style="strokeColor=#DEEDFF" vertex="1" parent="1">
          <mxGeometry x="866.500000000002" y="380.0000000000002" width="30" height="440.5" as="geometry" />
        </mxCell>
        <mxCell id="rddespz064YGn290ZFb--384" value="w 30" style="fillColor=#23445D;strokeColor=#FFFFFF;strokeWidth=2;fontColor=#FFFFFF;fontStyle=1" vertex="1" parent="1">
          <mxGeometry x="866.5000000000018" y="360" width="30" height="20" as="geometry" />
        </mxCell>
        <mxCell id="rddespz064YGn290ZFb--662" value="1" style="strokeColor=#DEEDFF;fillColor=#ADC3D9" vertex="1" parent="1">
          <mxGeometry x="237" y="380" width="40" height="20" as="geometry" />
        </mxCell>
        <mxCell id="rddespz064YGn290ZFb--663" value="Complete project execution" style="align=left;strokeColor=#DEEDFF;fillColor=#ADC3D9" vertex="1" parent="1">
          <mxGeometry x="277" y="380" width="230" height="20" as="geometry" />
        </mxCell>
        <mxCell id="rddespz064YGn290ZFb--664" value="28 weeks" style="strokeColor=#DEEDFF;fillColor=#ADC3D9" vertex="1" parent="1">
          <mxGeometry x="506.5000000000018" y="379.5" width="60" height="20" as="geometry" />
        </mxCell>
        <mxCell id="rddespz064YGn290ZFb--665" value="17.02.20" style="strokeColor=#DEEDFF;fillColor=#ADC3D9" vertex="1" parent="1">
          <mxGeometry x="566.500000000002" y="379.5" width="60" height="20" as="geometry" />
        </mxCell>
        <mxCell id="rddespz064YGn290ZFb--666" value="31.08.20" style="strokeColor=#DEEDFF;fillColor=#ADC3D9" vertex="1" parent="1">
          <mxGeometry x="626.5000000000016" y="379.5000000000002" width="60" height="20" as="geometry" />
        </mxCell>
        <mxCell id="rddespz064YGn290ZFb--667" value="2" style="strokeColor=#DEEDFF;fillColor=#CCE5FF" vertex="1" parent="1">
          <mxGeometry x="237.00000000000023" y="400" width="40" height="20" as="geometry" />
        </mxCell>
        <mxCell id="rddespz064YGn290ZFb--668" value="Documentation" style="align=left;strokeColor=#DEEDFF;fillColor=#CCE5FF" vertex="1" parent="1">
          <mxGeometry x="277.0000000000002" y="400" width="230" height="20" as="geometry" />
        </mxCell>
        <mxCell id="rddespz064YGn290ZFb--669" value="4 weeks" style="strokeColor=#DEEDFF;fillColor=#CCE5FF" vertex="1" parent="1">
          <mxGeometry x="506.50000000000205" y="399.4999999999998" width="60" height="20" as="geometry" />
        </mxCell>
        <mxCell id="rddespz064YGn290ZFb--670" value="17.02.20" style="strokeColor=#DEEDFF;fillColor=#CCE5FF" vertex="1" parent="1">
          <mxGeometry x="566.5000000000023" y="399.4999999999998" width="60" height="20" as="geometry" />
        </mxCell>
        <mxCell id="rddespz064YGn290ZFb--671" value="15.03.20" style="strokeColor=#DEEDFF;fillColor=#CCE5FF" vertex="1" parent="1">
          <mxGeometry x="626.5000000000018" y="399.5" width="60" height="20" as="geometry" />
        </mxCell>
        <mxCell id="rddespz064YGn290ZFb--672" value="3" style="strokeColor=#DEEDFF" vertex="1" parent="1">
          <mxGeometry x="237.00000000000028" y="419.9999999999998" width="40" height="20" as="geometry" />
        </mxCell>
        <mxCell id="rddespz064YGn290ZFb--673" value="MPLS Networks" style="align=left;strokeColor=#DEEDFF" vertex="1" parent="1">
          <mxGeometry x="277.0000000000002" y="419.9999999999998" width="230" height="20.000000000000014" as="geometry" />
        </mxCell>
        <mxCell id="rddespz064YGn290ZFb--674" value="1 week" style="strokeColor=#DEEDFF" vertex="1" parent="1">
          <mxGeometry x="506.50000000000205" y="419.4999999999998" width="60" height="20" as="geometry" />
        </mxCell>
        <mxCell id="rddespz064YGn290ZFb--675" value="17.02.20" style="strokeColor=#DEEDFF" vertex="1" parent="1">
          <mxGeometry x="566.5000000000023" y="419.4999999999998" width="60" height="20" as="geometry" />
        </mxCell>
        <mxCell id="rddespz064YGn290ZFb--676" value="23.02.20" style="strokeColor=#DEEDFF" vertex="1" parent="1">
          <mxGeometry x="626.5000000000018" y="419.5" width="60" height="20" as="geometry" />
        </mxCell>
        <mxCell id="rddespz064YGn290ZFb--677" value="4" style="strokeColor=#DEEDFF" vertex="1" parent="1">
          <mxGeometry x="237" y="440.0000000000002" width="40" height="20" as="geometry" />
        </mxCell>
        <mxCell id="rddespz064YGn290ZFb--678" value="Web Frameworks" style="align=left;strokeColor=#DEEDFF" vertex="1" parent="1">
          <mxGeometry x="277" y="440.0000000000002" width="230" height="20" as="geometry" />
        </mxCell>
        <mxCell id="rddespz064YGn290ZFb--679" value="2 week" style="strokeColor=#DEEDFF" vertex="1" parent="1">
          <mxGeometry x="506.5000000000017" y="439.5" width="60" height="20" as="geometry" />
        </mxCell>
        <mxCell id="rddespz064YGn290ZFb--680" value="24.02.20" style="strokeColor=#DEEDFF" vertex="1" parent="1">
          <mxGeometry x="566.500000000002" y="439.5" width="60" height="20" as="geometry" />
        </mxCell>
        <mxCell id="rddespz064YGn290ZFb--681" value="08.03.20" style="strokeColor=#DEEDFF" vertex="1" parent="1">
          <mxGeometry x="626.5000000000015" y="439.50000000000045" width="60" height="20" as="geometry" />
        </mxCell>
        <mxCell id="rddespz064YGn290ZFb--682" value="5" style="strokeColor=#DEEDFF" vertex="1" parent="1">
          <mxGeometry x="236.9999999999999" y="460.0000000000002" width="40" height="20" as="geometry" />
        </mxCell>
        <mxCell id="rddespz064YGn290ZFb--683" value="CI/CD Technologies" style="align=left;strokeColor=#DEEDFF" vertex="1" parent="1">
          <mxGeometry x="276.9999999999999" y="460.0000000000002" width="230" height="20" as="geometry" />
        </mxCell>
        <mxCell id="rddespz064YGn290ZFb--684" value="1 week" style="strokeColor=#DEEDFF" vertex="1" parent="1">
          <mxGeometry x="506.5000000000016" y="459.5" width="60" height="20" as="geometry" />
        </mxCell>
        <mxCell id="rddespz064YGn290ZFb--685" value="09.03.20" style="strokeColor=#DEEDFF" vertex="1" parent="1">
          <mxGeometry x="566.5000000000019" y="459.5" width="60" height="20" as="geometry" />
        </mxCell>
        <mxCell id="rddespz064YGn290ZFb--686" value="15.03.20" style="strokeColor=#DEEDFF" vertex="1" parent="1">
          <mxGeometry x="626.5000000000015" y="459.50000000000045" width="60" height="20" as="geometry" />
        </mxCell>
        <mxCell id="rddespz064YGn290ZFb--792" value="Task Name" style="fillColor=#23445D;strokeColor=#FFFFFF;strokeWidth=2;fontColor=#FFFFFF;fontStyle=1" vertex="1" parent="1">
          <mxGeometry x="277" y="340" width="230" height="40" as="geometry" />
        </mxCell>
        <mxCell id="rddespz064YGn290ZFb--793" value="" style="fillColor=#23445D;strokeColor=#FFFFFF;strokeWidth=2;fontColor=#FFFFFF;fontStyle=1" vertex="1" parent="1">
          <mxGeometry x="237" y="340" width="40" height="40" as="geometry" />
        </mxCell>
        <mxCell id="rddespz064YGn290ZFb--794" value="Duration" style="fillColor=#23445D;strokeColor=#FFFFFF;strokeWidth=2;fontColor=#FFFFFF;fontStyle=1" vertex="1" parent="1">
          <mxGeometry x="506.5000000000018" y="340" width="60" height="40.00000000000001" as="geometry" />
        </mxCell>
        <mxCell id="rddespz064YGn290ZFb--795" value="Start" style="fillColor=#23445D;strokeColor=#FFFFFF;strokeWidth=2;fontColor=#FFFFFF;fontStyle=1" vertex="1" parent="1">
          <mxGeometry x="566.5000000000018" y="340" width="60" height="40.00000000000001" as="geometry" />
        </mxCell>
        <mxCell id="rddespz064YGn290ZFb--796" value="ETA" style="fillColor=#23445D;strokeColor=#FFFFFF;strokeWidth=2;fontColor=#FFFFFF;fontStyle=1" vertex="1" parent="1">
          <mxGeometry x="626.5000000000019" y="340" width="60" height="40.00000000000001" as="geometry" />
        </mxCell>
        <mxCell id="rddespz064YGn290ZFb--797" value="6" style="strokeColor=#DEEDFF;fillColor=#CCE5FF" vertex="1" parent="1">
          <mxGeometry x="237.00000000000034" y="480.0000000000009" width="40" height="20" as="geometry" />
        </mxCell>
        <mxCell id="rddespz064YGn290ZFb--798" value="Development: Audit Module" style="align=left;strokeColor=#DEEDFF;fillColor=#CCE5FF" vertex="1" parent="1">
          <mxGeometry x="277.00000000000034" y="480.0000000000009" width="230" height="20.00000000000003" as="geometry" />
        </mxCell>
        <mxCell id="rddespz064YGn290ZFb--799" value="9 weeks" style="strokeColor=#DEEDFF;fillColor=#CCE5FF" vertex="1" parent="1">
          <mxGeometry x="506.50000000000205" y="479.5000000000009" width="60" height="20" as="geometry" />
        </mxCell>
        <mxCell id="rddespz064YGn290ZFb--800" value="24.04.12" style="strokeColor=#DEEDFF;fillColor=#CCE5FF" vertex="1" parent="1">
          <mxGeometry x="566.5000000000025" y="479.5000000000009" width="60" height="20" as="geometry" />
        </mxCell>
        <mxCell id="rddespz064YGn290ZFb--801" value="21.05.12" style="strokeColor=#DEEDFF;fillColor=#CCE5FF" vertex="1" parent="1">
          <mxGeometry x="626.5000000000018" y="479.50000000000136" width="60" height="20" as="geometry" />
        </mxCell>
        <mxCell id="rddespz064YGn290ZFb--802" value="7" style="strokeColor=#DEEDFF" vertex="1" parent="1">
          <mxGeometry x="237.00000000000023" y="500.0000000000009" width="40" height="20" as="geometry" />
        </mxCell>
        <mxCell id="rddespz064YGn290ZFb--803" value="Audit Script Manager" style="align=left;strokeColor=#DEEDFF" vertex="1" parent="1">
          <mxGeometry x="277.0000000000002" y="500.0000000000009" width="230" height="20" as="geometry" />
        </mxCell>
        <mxCell id="rddespz064YGn290ZFb--804" value="4 weeks" style="strokeColor=#DEEDFF" vertex="1" parent="1">
          <mxGeometry x="506.50000000000205" y="499.5000000000009" width="60" height="20" as="geometry" />
        </mxCell>
        <mxCell id="rddespz064YGn290ZFb--805" value="24.04.12" style="strokeColor=#DEEDFF" vertex="1" parent="1">
          <mxGeometry x="566.5000000000023" y="499.5000000000009" width="60" height="20" as="geometry" />
        </mxCell>
        <mxCell id="rddespz064YGn290ZFb--806" value="25.04.12" style="strokeColor=#DEEDFF" vertex="1" parent="1">
          <mxGeometry x="626.5000000000018" y="499.50000000000136" width="60" height="20" as="geometry" />
        </mxCell>
        <mxCell id="rddespz064YGn290ZFb--807" value="8" style="strokeColor=#DEEDFF" vertex="1" parent="1">
          <mxGeometry x="237.00000000000023" y="520.0000000000014" width="40" height="20" as="geometry" />
        </mxCell>
        <mxCell id="rddespz064YGn290ZFb--808" value="Task Scheduler" style="align=left;strokeColor=#DEEDFF" vertex="1" parent="1">
          <mxGeometry x="277.0000000000002" y="520.0000000000014" width="230" height="20" as="geometry" />
        </mxCell>
        <mxCell id="rddespz064YGn290ZFb--809" value="3 weeks" style="strokeColor=#DEEDFF" vertex="1" parent="1">
          <mxGeometry x="506.50000000000205" y="519.5000000000011" width="60" height="20" as="geometry" />
        </mxCell>
        <mxCell id="rddespz064YGn290ZFb--810" value="26.04.12" style="strokeColor=#DEEDFF" vertex="1" parent="1">
          <mxGeometry x="566.5000000000023" y="519.5000000000011" width="60" height="20" as="geometry" />
        </mxCell>
        <mxCell id="rddespz064YGn290ZFb--811" value="27.04.12" style="strokeColor=#DEEDFF" vertex="1" parent="1">
          <mxGeometry x="626.5000000000018" y="519.5000000000014" width="60" height="20" as="geometry" />
        </mxCell>
        <mxCell id="rddespz064YGn290ZFb--822" value="9" style="strokeColor=#DEEDFF" vertex="1" parent="1">
          <mxGeometry x="236.99999999999977" y="540.0000000000018" width="40" height="20" as="geometry" />
        </mxCell>
        <mxCell id="rddespz064YGn290ZFb--823" value="Testing" style="align=left;strokeColor=#DEEDFF" vertex="1" parent="1">
          <mxGeometry x="276.9999999999998" y="540.0000000000018" width="230" height="20" as="geometry" />
        </mxCell>
        <mxCell id="rddespz064YGn290ZFb--824" value="2 weeks" style="strokeColor=#DEEDFF" vertex="1" parent="1">
          <mxGeometry x="506.50000000000136" y="539.5000000000018" width="60" height="20" as="geometry" />
        </mxCell>
        <mxCell id="rddespz064YGn290ZFb--825" value="17.05.12" style="strokeColor=#DEEDFF" vertex="1" parent="1">
          <mxGeometry x="566.5000000000018" y="539.5000000000018" width="60" height="20" as="geometry" />
        </mxCell>
        <mxCell id="rddespz064YGn290ZFb--826" value="18.05.12" style="strokeColor=#DEEDFF" vertex="1" parent="1">
          <mxGeometry x="626.5000000000011" y="539.500000000002" width="60" height="20" as="geometry" />
        </mxCell>
        <mxCell id="rddespz064YGn290ZFb--852" value="10" style="strokeColor=#DEEDFF;fillColor=#CCE5FF" vertex="1" parent="1">
          <mxGeometry x="237.00000000000045" y="560.0000000000009" width="40" height="20" as="geometry" />
        </mxCell>
        <mxCell id="rddespz064YGn290ZFb--853" value="Development: User Management Module" style="align=left;strokeColor=#DEEDFF;fillColor=#CCE5FF" vertex="1" parent="1">
          <mxGeometry x="277.00000000000045" y="560.0000000000009" width="230" height="20.00000000000003" as="geometry" />
        </mxCell>
        <mxCell id="rddespz064YGn290ZFb--854" value="4 weeks" style="strokeColor=#DEEDFF;fillColor=#CCE5FF" vertex="1" parent="1">
          <mxGeometry x="506.50000000000205" y="559.5000000000009" width="60" height="20" as="geometry" />
        </mxCell>
        <mxCell id="rddespz064YGn290ZFb--855" value="24.04.12" style="strokeColor=#DEEDFF;fillColor=#CCE5FF" vertex="1" parent="1">
          <mxGeometry x="566.5000000000025" y="559.5000000000009" width="60" height="20" as="geometry" />
        </mxCell>
        <mxCell id="rddespz064YGn290ZFb--856" value="21.05.12" style="strokeColor=#DEEDFF;fillColor=#CCE5FF" vertex="1" parent="1">
          <mxGeometry x="626.5000000000018" y="559.5000000000014" width="60" height="20" as="geometry" />
        </mxCell>
        <mxCell id="rddespz064YGn290ZFb--857" value="11" style="strokeColor=#DEEDFF" vertex="1" parent="1">
          <mxGeometry x="237.00000000000023" y="580.0000000000009" width="40" height="20" as="geometry" />
        </mxCell>
        <mxCell id="rddespz064YGn290ZFb--858" value="Authentication" style="align=left;strokeColor=#DEEDFF" vertex="1" parent="1">
          <mxGeometry x="277.0000000000002" y="580.0000000000009" width="230" height="20" as="geometry" />
        </mxCell>
        <mxCell id="rddespz064YGn290ZFb--859" value="2 weeks" style="strokeColor=#DEEDFF" vertex="1" parent="1">
          <mxGeometry x="506.50000000000205" y="579.5000000000009" width="60" height="20" as="geometry" />
        </mxCell>
        <mxCell id="rddespz064YGn290ZFb--860" value="24.04.12" style="strokeColor=#DEEDFF" vertex="1" parent="1">
          <mxGeometry x="566.5000000000023" y="579.5000000000009" width="60" height="20" as="geometry" />
        </mxCell>
        <mxCell id="rddespz064YGn290ZFb--861" value="25.04.12" style="strokeColor=#DEEDFF" vertex="1" parent="1">
          <mxGeometry x="626.5000000000018" y="579.5000000000014" width="60" height="20" as="geometry" />
        </mxCell>
        <mxCell id="rddespz064YGn290ZFb--862" value="12" style="strokeColor=#DEEDFF" vertex="1" parent="1">
          <mxGeometry x="237.00000000000023" y="600.0000000000014" width="40" height="20" as="geometry" />
        </mxCell>
        <mxCell id="rddespz064YGn290ZFb--863" value="User Registration" style="align=left;strokeColor=#DEEDFF" vertex="1" parent="1">
          <mxGeometry x="277.0000000000002" y="600.0000000000014" width="230" height="20" as="geometry" />
        </mxCell>
        <mxCell id="rddespz064YGn290ZFb--864" value="1 week" style="strokeColor=#DEEDFF" vertex="1" parent="1">
          <mxGeometry x="506.50000000000205" y="599.5000000000011" width="60" height="20" as="geometry" />
        </mxCell>
        <mxCell id="rddespz064YGn290ZFb--865" value="26.04.12" style="strokeColor=#DEEDFF" vertex="1" parent="1">
          <mxGeometry x="566.5000000000023" y="599.5000000000011" width="60" height="20" as="geometry" />
        </mxCell>
        <mxCell id="rddespz064YGn290ZFb--866" value="27.04.12" style="strokeColor=#DEEDFF" vertex="1" parent="1">
          <mxGeometry x="626.5000000000018" y="599.5000000000014" width="60" height="20" as="geometry" />
        </mxCell>
        <mxCell id="rddespz064YGn290ZFb--867" value="13" style="strokeColor=#DEEDFF" vertex="1" parent="1">
          <mxGeometry x="236.99999999999977" y="620.0000000000018" width="40" height="20" as="geometry" />
        </mxCell>
        <mxCell id="rddespz064YGn290ZFb--868" value="Permission Implementation" style="align=left;strokeColor=#DEEDFF" vertex="1" parent="1">
          <mxGeometry x="276.9999999999998" y="620.0000000000018" width="230" height="20" as="geometry" />
        </mxCell>
        <mxCell id="rddespz064YGn290ZFb--869" value="1 week" style="strokeColor=#DEEDFF" vertex="1" parent="1">
          <mxGeometry x="506.50000000000136" y="619.5000000000018" width="60" height="20" as="geometry" />
        </mxCell>
        <mxCell id="rddespz064YGn290ZFb--870" value="17.05.12" style="strokeColor=#DEEDFF" vertex="1" parent="1">
          <mxGeometry x="566.5000000000018" y="619.5000000000018" width="60" height="20" as="geometry" />
        </mxCell>
        <mxCell id="rddespz064YGn290ZFb--871" value="18.05.12" style="strokeColor=#DEEDFF" vertex="1" parent="1">
          <mxGeometry x="626.5000000000011" y="619.500000000002" width="60" height="20" as="geometry" />
        </mxCell>
        <mxCell id="rddespz064YGn290ZFb--897" value="15" style="strokeColor=#DEEDFF;fillColor=#CCE5FF" vertex="1" parent="1">
          <mxGeometry x="237.00000000000045" y="640.0000000000009" width="40" height="20" as="geometry" />
        </mxCell>
        <mxCell id="rddespz064YGn290ZFb--898" value="Development: WO Automation" style="align=left;strokeColor=#DEEDFF;fillColor=#CCE5FF" vertex="1" parent="1">
          <mxGeometry x="277.00000000000045" y="640.0000000000009" width="230" height="20.00000000000003" as="geometry" />
        </mxCell>
        <mxCell id="rddespz064YGn290ZFb--899" value="7 weeks" style="strokeColor=#DEEDFF;fillColor=#CCE5FF" vertex="1" parent="1">
          <mxGeometry x="506.50000000000205" y="639.5000000000009" width="60" height="20" as="geometry" />
        </mxCell>
        <mxCell id="rddespz064YGn290ZFb--900" value="24.04.12" style="strokeColor=#DEEDFF;fillColor=#CCE5FF" vertex="1" parent="1">
          <mxGeometry x="566.5000000000025" y="639.5000000000009" width="60" height="20" as="geometry" />
        </mxCell>
        <mxCell id="rddespz064YGn290ZFb--901" value="21.05.12" style="strokeColor=#DEEDFF;fillColor=#CCE5FF" vertex="1" parent="1">
          <mxGeometry x="626.5000000000018" y="639.5000000000014" width="60" height="20" as="geometry" />
        </mxCell>
        <mxCell id="rddespz064YGn290ZFb--902" value="16" style="strokeColor=#DEEDFF" vertex="1" parent="1">
          <mxGeometry x="237.00000000000023" y="660.0000000000009" width="40" height="20" as="geometry" />
        </mxCell>
        <mxCell id="rddespz064YGn290ZFb--903" value="B2B WO" style="align=left;strokeColor=#DEEDFF" vertex="1" parent="1">
          <mxGeometry x="277.0000000000002" y="660.0000000000009" width="230" height="20" as="geometry" />
        </mxCell>
        <mxCell id="rddespz064YGn290ZFb--904" value="5 weeks" style="strokeColor=#DEEDFF" vertex="1" parent="1">
          <mxGeometry x="506.50000000000205" y="659.5000000000009" width="60" height="20" as="geometry" />
        </mxCell>
        <mxCell id="rddespz064YGn290ZFb--905" value="24.04.12" style="strokeColor=#DEEDFF" vertex="1" parent="1">
          <mxGeometry x="566.5000000000023" y="659.5000000000009" width="60" height="20" as="geometry" />
        </mxCell>
        <mxCell id="rddespz064YGn290ZFb--906" value="25.04.12" style="strokeColor=#DEEDFF" vertex="1" parent="1">
          <mxGeometry x="626.5000000000018" y="659.5000000000014" width="60" height="20" as="geometry" />
        </mxCell>
        <mxCell id="rddespz064YGn290ZFb--912" value="17" style="strokeColor=#DEEDFF" vertex="1" parent="1">
          <mxGeometry x="236.99999999999977" y="680.0000000000018" width="40" height="20" as="geometry" />
        </mxCell>
        <mxCell id="rddespz064YGn290ZFb--913" value="Testing" style="align=left;strokeColor=#DEEDFF" vertex="1" parent="1">
          <mxGeometry x="276.9999999999998" y="680.0000000000018" width="230" height="20" as="geometry" />
        </mxCell>
        <mxCell id="rddespz064YGn290ZFb--914" value="2 weeks" style="strokeColor=#DEEDFF" vertex="1" parent="1">
          <mxGeometry x="506.50000000000136" y="679.5000000000018" width="60" height="20" as="geometry" />
        </mxCell>
        <mxCell id="rddespz064YGn290ZFb--915" value="17.05.12" style="strokeColor=#DEEDFF" vertex="1" parent="1">
          <mxGeometry x="566.5000000000018" y="679.5000000000018" width="60" height="20" as="geometry" />
        </mxCell>
        <mxCell id="rddespz064YGn290ZFb--916" value="18.05.12" style="strokeColor=#DEEDFF" vertex="1" parent="1">
          <mxGeometry x="626.5000000000011" y="679.500000000002" width="60" height="20" as="geometry" />
        </mxCell>
        <mxCell id="rddespz064YGn290ZFb--919" value="15" style="strokeColor=#DEEDFF;fillColor=#CCE5FF" vertex="1" parent="1">
          <mxGeometry x="237.00000000000045" y="700.0000000000009" width="40" height="20" as="geometry" />
        </mxCell>
        <mxCell id="rddespz064YGn290ZFb--920" value="Deployment" style="align=left;strokeColor=#DEEDFF;fillColor=#CCE5FF" vertex="1" parent="1">
          <mxGeometry x="277.00000000000045" y="700.0000000000009" width="230" height="20.00000000000003" as="geometry" />
        </mxCell>
        <mxCell id="rddespz064YGn290ZFb--921" value="7 weeks" style="strokeColor=#DEEDFF;fillColor=#CCE5FF" vertex="1" parent="1">
          <mxGeometry x="506.50000000000205" y="699.5000000000009" width="60" height="20" as="geometry" />
        </mxCell>
        <mxCell id="rddespz064YGn290ZFb--922" value="24.04.12" style="strokeColor=#DEEDFF;fillColor=#CCE5FF" vertex="1" parent="1">
          <mxGeometry x="566.5000000000025" y="699.5000000000009" width="60" height="20" as="geometry" />
        </mxCell>
        <mxCell id="rddespz064YGn290ZFb--923" value="21.05.12" style="strokeColor=#DEEDFF;fillColor=#CCE5FF" vertex="1" parent="1">
          <mxGeometry x="626.5000000000018" y="699.5000000000014" width="60" height="20" as="geometry" />
        </mxCell>
        <mxCell id="rddespz064YGn290ZFb--924" value="16" style="strokeColor=#DEEDFF" vertex="1" parent="1">
          <mxGeometry x="237.00000000000023" y="720.0000000000009" width="40" height="20" as="geometry" />
        </mxCell>
        <mxCell id="rddespz064YGn290ZFb--925" value="Testing Environment" style="align=left;strokeColor=#DEEDFF" vertex="1" parent="1">
          <mxGeometry x="277.0000000000002" y="720.0000000000009" width="230" height="20" as="geometry" />
        </mxCell>
        <mxCell id="rddespz064YGn290ZFb--926" value="4 weeks" style="strokeColor=#DEEDFF" vertex="1" parent="1">
          <mxGeometry x="506.50000000000205" y="719.5000000000009" width="60" height="20" as="geometry" />
        </mxCell>
        <mxCell id="rddespz064YGn290ZFb--927" value="24.04.12" style="strokeColor=#DEEDFF" vertex="1" parent="1">
          <mxGeometry x="566.5000000000023" y="719.5000000000009" width="60" height="20" as="geometry" />
        </mxCell>
        <mxCell id="rddespz064YGn290ZFb--928" value="25.04.12" style="strokeColor=#DEEDFF" vertex="1" parent="1">
          <mxGeometry x="626.5000000000018" y="719.5000000000014" width="60" height="20" as="geometry" />
        </mxCell>
        <mxCell id="rddespz064YGn290ZFb--929" value="17" style="strokeColor=#DEEDFF" vertex="1" parent="1">
          <mxGeometry x="236.99999999999977" y="740.0000000000018" width="40" height="20" as="geometry" />
        </mxCell>
        <mxCell id="rddespz064YGn290ZFb--930" value="Production " style="align=left;strokeColor=#DEEDFF" vertex="1" parent="1">
          <mxGeometry x="276.9999999999998" y="740.0000000000018" width="230" height="20" as="geometry" />
        </mxCell>
        <mxCell id="rddespz064YGn290ZFb--931" value="2 weeks" style="strokeColor=#DEEDFF" vertex="1" parent="1">
          <mxGeometry x="506.50000000000136" y="739.5000000000018" width="60" height="20" as="geometry" />
        </mxCell>
        <mxCell id="rddespz064YGn290ZFb--932" value="17.05.12" style="strokeColor=#DEEDFF" vertex="1" parent="1">
          <mxGeometry x="566.5000000000018" y="739.5000000000018" width="60" height="20" as="geometry" />
        </mxCell>
        <mxCell id="rddespz064YGn290ZFb--933" value="18.05.12" style="strokeColor=#DEEDFF" vertex="1" parent="1">
          <mxGeometry x="626.5000000000011" y="739.500000000002" width="60" height="20" as="geometry" />
        </mxCell>
        <mxCell id="rddespz064YGn290ZFb--934" value="" style="shape=mxgraph.flowchart.process;fillColor=#AE4132;strokeColor=#000000;strokeWidth=2;opacity=100" vertex="1" parent="1">
          <mxGeometry x="686.5" y="380" width="840" height="20" as="geometry" />
        </mxCell>
        <mxCell id="rddespz064YGn290ZFb--935" value="" style="shape=mxgraph.flowchart.process;fillColor=#AE4132;strokeColor=#000000;strokeWidth=2;opacity=50" vertex="1" parent="1">
          <mxGeometry x="686.5" y="400" width="120" height="20" as="geometry" />
        </mxCell>
        <mxCell id="rddespz064YGn290ZFb--936" value="" style="shape=mxgraph.flowchart.process;fillColor=#AE4132;strokeWidth=2;opacity=50;strokeColor=none;" vertex="1" parent="1">
          <mxGeometry x="686.5" y="420" width="30" height="20" as="geometry" />
        </mxCell>
        <mxCell id="rddespz064YGn290ZFb--937" value="" style="shape=mxgraph.flowchart.process;fillColor=#AE4132;strokeWidth=2;opacity=50;strokeColor=none;" vertex="1" parent="1">
          <mxGeometry x="716.5" y="440" width="60" height="20" as="geometry" />
        </mxCell>
        <mxCell id="rddespz064YGn290ZFb--938" value="" style="shape=mxgraph.flowchart.process;fillColor=#AE4132;strokeWidth=2;opacity=50;strokeColor=none;" vertex="1" parent="1">
          <mxGeometry x="776.5" y="460" width="30" height="20" as="geometry" />
        </mxCell>
        <mxCell id="rddespz064YGn290ZFb--940" value="" style="shape=mxgraph.flowchart.process;fillColor=#AE4132;strokeColor=#000000;strokeWidth=2;opacity=50" vertex="1" parent="1">
          <mxGeometry x="806.5" y="481" width="210" height="20" as="geometry" />
        </mxCell>
        <mxCell id="rddespz064YGn290ZFb--941" value="" style="shape=mxgraph.flowchart.process;fillColor=#AE4132;strokeColor=#000000;strokeWidth=2;opacity=50" vertex="1" parent="1">
          <mxGeometry x="1016.5" y="559.5" width="150" height="20" as="geometry" />
        </mxCell>
        <mxCell id="rddespz064YGn290ZFb--942" value="" style="shape=mxgraph.flowchart.process;fillColor=#AE4132;strokeColor=#000000;strokeWidth=2;opacity=50" vertex="1" parent="1">
          <mxGeometry x="1166.5" y="639.5" width="210" height="20" as="geometry" />
        </mxCell>
        <mxCell id="rddespz064YGn290ZFb--943" value="" style="shape=mxgraph.flowchart.process;fillColor=#AE4132;strokeColor=#000000;strokeWidth=2;opacity=50" vertex="1" parent="1">
          <mxGeometry x="927.5" y="700" width="120" height="20" as="geometry" />
        </mxCell>
        <mxCell id="rddespz064YGn290ZFb--944" value="17" style="strokeColor=#DEEDFF" vertex="1" parent="1">
          <mxGeometry x="236.99999999999977" y="760.0000000000018" width="40" height="20" as="geometry" />
        </mxCell>
        <mxCell id="rddespz064YGn290ZFb--945" value="Testing in production" style="align=left;strokeColor=#DEEDFF" vertex="1" parent="1">
          <mxGeometry x="276.9999999999998" y="760.0000000000018" width="230" height="20" as="geometry" />
        </mxCell>
        <mxCell id="rddespz064YGn290ZFb--946" value="1 week" style="strokeColor=#DEEDFF" vertex="1" parent="1">
          <mxGeometry x="506.50000000000136" y="759.5000000000018" width="60" height="20" as="geometry" />
        </mxCell>
        <mxCell id="rddespz064YGn290ZFb--947" value="17.05.12" style="strokeColor=#DEEDFF" vertex="1" parent="1">
          <mxGeometry x="566.5000000000018" y="759.5000000000018" width="60" height="20" as="geometry" />
        </mxCell>
        <mxCell id="rddespz064YGn290ZFb--948" value="18.05.12" style="strokeColor=#DEEDFF" vertex="1" parent="1">
          <mxGeometry x="626.5000000000011" y="759.500000000002" width="60" height="20" as="geometry" />
        </mxCell>
        <mxCell id="rddespz064YGn290ZFb--949" value="15" style="strokeColor=#DEEDFF;fillColor=#CCE5FF" vertex="1" parent="1">
          <mxGeometry x="237.00000000000045" y="780.0000000000009" width="40" height="20" as="geometry" />
        </mxCell>
        <mxCell id="rddespz064YGn290ZFb--950" value="Writing the report" style="align=left;strokeColor=#DEEDFF;fillColor=#CCE5FF" vertex="1" parent="1">
          <mxGeometry x="277.00000000000045" y="780.0000000000009" width="230" height="20.00000000000003" as="geometry" />
        </mxCell>
        <mxCell id="rddespz064YGn290ZFb--951" value="20 days" style="strokeColor=#DEEDFF;fillColor=#CCE5FF" vertex="1" parent="1">
          <mxGeometry x="506.50000000000205" y="779.5000000000009" width="60" height="20" as="geometry" />
        </mxCell>
        <mxCell id="rddespz064YGn290ZFb--952" value="24.04.12" style="strokeColor=#DEEDFF;fillColor=#CCE5FF" vertex="1" parent="1">
          <mxGeometry x="566.5000000000025" y="779.5000000000009" width="60" height="20" as="geometry" />
        </mxCell>
        <mxCell id="rddespz064YGn290ZFb--953" value="21.05.12" style="strokeColor=#DEEDFF;fillColor=#CCE5FF" vertex="1" parent="1">
          <mxGeometry x="626.5000000000018" y="779.5000000000014" width="60" height="20" as="geometry" />
        </mxCell>
        <mxCell id="rddespz064YGn290ZFb--961" value="" style="shape=mxgraph.flowchart.process;fillColor=#AE4132;strokeWidth=2;opacity=50;strokeColor=none;" vertex="1" parent="1">
          <mxGeometry x="806.5" y="501" width="120" height="20" as="geometry" />
        </mxCell>
        <mxCell id="rddespz064YGn290ZFb--962" value="" style="shape=mxgraph.flowchart.process;fillColor=#AE4132;strokeWidth=2;opacity=50;strokeColor=none;" vertex="1" parent="1">
          <mxGeometry x="926.5" y="521" width="90" height="20" as="geometry" />
        </mxCell>
        <mxCell id="rddespz064YGn290ZFb--963" value="" style="shape=mxgraph.flowchart.process;fillColor=#AE4132;strokeWidth=2;opacity=50;strokeColor=none;" vertex="1" parent="1">
          <mxGeometry x="1436" y="739.5" width="30" height="20" as="geometry" />
        </mxCell>
        <mxCell id="rddespz064YGn290ZFb--964" value="" style="shape=mxgraph.flowchart.process;fillColor=#AE4132;strokeWidth=2;opacity=50;strokeColor=none;" vertex="1" parent="1">
          <mxGeometry x="1466" y="760" width="60" height="20" as="geometry" />
        </mxCell>
        <mxCell id="rddespz064YGn290ZFb--965" value="" style="shape=mxgraph.flowchart.process;fillColor=#AE4132;strokeWidth=2;opacity=50;strokeColor=none;" vertex="1" parent="1">
          <mxGeometry x="926.5" y="720" width="120" height="20" as="geometry" />
        </mxCell>
        <mxCell id="rddespz064YGn290ZFb--967" value="" style="shape=mxgraph.flowchart.process;fillColor=#AE4132;strokeColor=#000000;strokeWidth=2;opacity=50" vertex="1" parent="1">
          <mxGeometry x="1436.5" y="699.5" width="90" height="20" as="geometry" />
        </mxCell>
        <mxCell id="rddespz064YGn290ZFb--968" value="" style="shape=mxgraph.flowchart.process;strokeColor=#000000;strokeWidth=1;opacity=50;dashed=1;fillColor=none;" vertex="1" parent="1">
          <mxGeometry x="1047" y="700" width="389" height="20" as="geometry" />
        </mxCell>
        <mxCell id="rddespz064YGn290ZFb--969" value="" style="shape=mxgraph.flowchart.process;fillColor=#AE4132;strokeWidth=2;opacity=50;strokeColor=none;" vertex="1" parent="1">
          <mxGeometry x="1166.5" y="659.5" width="150" height="20" as="geometry" />
        </mxCell>
        <mxCell id="rddespz064YGn290ZFb--971" value="" style="shape=mxgraph.flowchart.process;fillColor=#AE4132;strokeWidth=2;opacity=50;strokeColor=none;" vertex="1" parent="1">
          <mxGeometry x="1316" y="680" width="60" height="20" as="geometry" />
        </mxCell>
        <mxCell id="rddespz064YGn290ZFb--972" value="" style="shape=mxgraph.flowchart.process;fillColor=#AE4132;strokeWidth=2;opacity=50;strokeColor=none;" vertex="1" parent="1">
          <mxGeometry x="1016.5" y="580" width="60" height="20" as="geometry" />
        </mxCell>
        <mxCell id="rddespz064YGn290ZFb--973" value="" style="shape=mxgraph.flowchart.process;fillColor=#AE4132;strokeWidth=2;opacity=50;strokeColor=none;" vertex="1" parent="1">
          <mxGeometry x="1076.5" y="600.5" width="30" height="20" as="geometry" />
        </mxCell>
        <mxCell id="rddespz064YGn290ZFb--974" value="" style="shape=mxgraph.flowchart.process;fillColor=#AE4132;strokeWidth=2;opacity=50;strokeColor=none;" vertex="1" parent="1">
          <mxGeometry x="1106.5" y="619.5" width="60" height="20" as="geometry" />
        </mxCell>
        <mxCell id="rddespz064YGn290ZFb--975" value="" style="shape=mxgraph.flowchart.process;fillColor=#AE4132;strokeWidth=2;opacity=50;strokeColor=none;" vertex="1" parent="1">
          <mxGeometry x="986.5" y="541" width="30" height="20" as="geometry" />
        </mxCell>
        <mxCell id="rddespz064YGn290ZFb--976" value="" style="shape=mxgraph.flowchart.process;fillColor=#AE4132;strokeWidth=2;opacity=50;strokeColor=none;" vertex="1" parent="1">
          <mxGeometry x="896.5" y="541" width="30" height="20" as="geometry" />
        </mxCell>
        <mxCell id="rddespz064YGn290ZFb--979" value="" style="endArrow=none;dashed=1;html=1;opacity=50;entryX=0.037;entryY=0.023;entryDx=0;entryDy=0;entryPerimeter=0;exitX=0.976;exitY=0.026;exitDx=0;exitDy=0;exitPerimeter=0;" edge="1" parent="1" source="rddespz064YGn290ZFb--976" target="rddespz064YGn290ZFb--975">
          <mxGeometry width="50" height="50" relative="1" as="geometry">
            <mxPoint x="931.25" y="559.5" as="sourcePoint" />
            <mxPoint x="1001.75" y="532.5" as="targetPoint" />
          </mxGeometry>
        </mxCell>
        <mxCell id="rddespz064YGn290ZFb--980" value="" style="endArrow=none;dashed=1;html=1;opacity=50;entryX=0.037;entryY=0.023;entryDx=0;entryDy=0;entryPerimeter=0;exitX=0.976;exitY=0.026;exitDx=0;exitDy=0;exitPerimeter=0;" edge="1" parent="1">
          <mxGeometry width="50" height="50" relative="1" as="geometry">
            <mxPoint x="925.78" y="560.52" as="sourcePoint" />
            <mxPoint x="987.6099999999999" y="560.46" as="targetPoint" />
          </mxGeometry>
        </mxCell>
        <mxCell id="rddespz064YGn290ZFb--982" value="" style="shape=mxgraph.flowchart.process;fillColor=#AE4132;strokeColor=#000000;strokeWidth=2;opacity=50" vertex="1" parent="1">
          <mxGeometry x="1316" y="779.5" width="210" height="20" as="geometry" />
        </mxCell>
        <mxCell id="rddespz064YGn290ZFb--988" value="" style="strokeColor=#DEEDFF" vertex="1" parent="1">
          <mxGeometry x="236.99999999999977" y="800.0000000000018" width="40" height="20" as="geometry" />
        </mxCell>
        <mxCell id="rddespz064YGn290ZFb--989" value="" style="align=left;strokeColor=#DEEDFF" vertex="1" parent="1">
          <mxGeometry x="276.9999999999998" y="800.0000000000018" width="230" height="20" as="geometry" />
        </mxCell>
        <mxCell id="rddespz064YGn290ZFb--990" value="" style="strokeColor=#DEEDFF" vertex="1" parent="1">
          <mxGeometry x="506.50000000000136" y="799.5000000000018" width="60" height="20" as="geometry" />
        </mxCell>
        <mxCell id="rddespz064YGn290ZFb--991" value="" style="strokeColor=#DEEDFF" vertex="1" parent="1">
          <mxGeometry x="566.5000000000018" y="799.5000000000018" width="60" height="20" as="geometry" />
        </mxCell>
        <mxCell id="rddespz064YGn290ZFb--992" value="" style="strokeColor=#DEEDFF" vertex="1" parent="1">
          <mxGeometry x="626.5000000000011" y="799.500000000002" width="60" height="20" as="geometry" />
        </mxCell>
      </root>
    </mxGraphModel>
  </diagram>
</mxfile>
